<svg width="45" height="45" viewBox="0 0 45 45" fill="none" xmlns="http://www.w3.org/2000/svg">
<g clip-path="url(#clip0_37_313)">
<path d="M4.42978 5.2858L4.43182 5.28382C5.95338 3.8179 7.9193 3.02748 10.8118 2.61912C13.7418 2.20546 17.46 2.20264 22.4072 2.20264C27.3543 2.20264 31.0727 2.20544 34.0041 2.61821C36.8979 3.02568 38.8666 3.8145 40.3924 5.27772C41.912 6.73874 42.7246 8.61283 43.1457 11.37C43.5741 14.1748 43.5774 17.7367 43.5774 22.4962C43.5774 27.2557 43.5741 30.8176 43.1457 33.6225C42.7245 36.38 41.9118 38.2543 40.3918 39.7154C38.866 41.1821 36.8955 41.9727 34.0006 42.3811C31.0685 42.7948 27.3503 42.7976 22.4072 42.7976C17.4641 42.7976 13.7458 42.7948 10.8148 42.3811C7.92094 41.9727 5.95319 41.1822 4.43182 39.7165L4.43079 39.7154C2.91095 38.2545 2.09811 36.3785 1.67684 33.6196C1.2484 30.8137 1.24512 27.2517 1.24512 22.4962C1.24512 17.7407 1.24841 14.1788 1.67683 11.3739C2.0981 8.61593 2.91082 6.74254 4.42978 5.2858Z" stroke="white" stroke-width="2.60081"/>
<path d="M19.8019 34.4681V24.2975H16.1846V20.256H19.8019V17.0716C19.8019 13.6119 22.0467 11.7288 25.3245 11.7288C26.895 11.7288 28.2438 11.8398 28.6352 11.8887V15.5039H26.362C24.5794 15.5039 24.2351 16.3032 24.2351 17.4713V20.256H28.258L27.7062 24.2975H24.2351V34.4681" fill="white"/>
</g>
<defs>
<clipPath id="clip0_37_313">
<rect width="45" height="43.0851" fill="white" transform="translate(0 0.95752)"/>
</clipPath>
</defs>
</svg>
