<svg width="45" height="43" viewBox="0 0 45 43" fill="none" xmlns="http://www.w3.org/2000/svg">
<g clip-path="url(#clip0_37_324)">
<path fill-rule="evenodd" clip-rule="evenodd" d="M5.8095 5.41981L5.80556 5.42359C4.5625 6.61575 3.83175 8.19019 3.43894 10.762C3.03406 13.4127 3.0281 16.809 3.0281 21.4962C3.0281 26.1833 3.03406 29.5798 3.43895 32.2315C3.83177 34.8042 4.56273 36.3818 5.80753 37.5783L5.8095 37.5802C7.04973 38.775 8.68765 39.4775 11.3631 39.8551C14.1207 40.2443 17.654 40.25 22.5302 40.25C27.4063 40.25 30.9397 40.2443 33.6983 39.855C36.3747 39.4775 38.016 38.7748 39.2608 37.5783C40.506 36.3814 41.2366 34.8053 41.6294 32.2342C42.0343 29.5836 42.0402 26.1872 42.0402 21.4962C42.0402 16.8051 42.0343 13.4088 41.6294 10.7581C41.2367 8.18772 40.5063 6.61178 39.2617 5.41498C38.0169 4.2216 36.377 3.52074 33.702 3.14407C30.9439 2.75571 27.4102 2.75 22.5302 2.75C17.6499 2.75 14.1167 2.75574 11.3602 3.14489C8.68643 3.52238 7.0501 4.22457 5.8095 5.41981ZM40.9848 3.75677C44.4784 7.11494 44.4784 12.2478 44.4784 21.4962C44.4784 30.7445 44.4784 35.8774 40.9848 39.2355C37.4912 42.5938 32.1435 42.5938 22.5302 42.5938C12.9168 42.5938 7.56905 42.5938 4.08342 39.2355C0.589844 35.8774 0.589844 30.7369 0.589844 21.4962C0.589844 12.2555 0.589844 7.11494 4.08342 3.76442C7.56905 0.40625 12.9089 0.40625 22.5302 0.40625C32.1514 0.40625 37.4912 0.40625 40.9848 3.75677Z" fill="white"/>
<path fill-rule="evenodd" clip-rule="evenodd" d="M22.5333 28.5312C26.5731 28.5312 29.8481 25.3832 29.8481 21.5C29.8481 17.6168 26.5731 14.4688 22.5333 14.4688C18.4935 14.4688 15.2185 17.6168 15.2185 21.5C15.2185 25.3832 18.4935 28.5312 22.5333 28.5312ZM22.5333 30.875C27.9198 30.875 32.2864 26.6776 32.2864 21.5C32.2864 16.3224 27.9198 12.125 22.5333 12.125C17.1469 12.125 12.7803 16.3224 12.7803 21.5C12.7803 26.6776 17.1469 30.875 22.5333 30.875Z" fill="white"/>
<path d="M32.8955 13.2969C34.5787 13.2969 35.9433 11.9852 35.9433 10.3672C35.9433 8.74917 34.5787 7.4375 32.8955 7.4375C31.2122 7.4375 29.8477 8.74917 29.8477 10.3672C29.8477 11.9852 31.2122 13.2969 32.8955 13.2969Z" fill="white"/>
</g>
<defs>
<clipPath id="clip0_37_324">
<rect width="45" height="42.1875" fill="white" transform="translate(0 0.40625)"/>
</clipPath>
</defs>
</svg>
