<svg width="45" height="45" viewBox="0 0 45 45" fill="none" xmlns="http://www.w3.org/2000/svg">
<g clip-path="url(#clip0_37_321)">
<path d="M4.30414 4.30603L4.30578 4.30438C5.88208 2.72448 7.90522 1.88891 10.8282 1.4596C13.7859 1.02521 17.534 1.02271 22.4956 1.02271C27.4572 1.02271 31.2056 1.02519 34.1646 1.45864C37.0884 1.88696 39.1141 2.72066 40.6945 4.29705C42.2751 5.87766 43.1108 7.9034 43.5401 10.8274C43.9746 13.7861 43.977 17.5342 43.977 22.4959C43.977 27.4575 43.9746 31.2057 43.5401 34.1644C43.1108 37.0884 42.2751 39.1141 40.6945 40.6947C39.114 42.2752 37.0865 43.111 34.1612 43.5403C31.2014 43.9748 27.4532 43.9772 22.4956 43.9772C17.5381 43.9772 13.7899 43.9748 10.8312 43.5403C7.90694 43.111 5.88192 42.2753 4.30578 40.6956L4.30496 40.6947C2.72449 39.1143 1.88873 37.0867 1.45938 34.1614C1.02496 31.2016 1.02246 27.4535 1.02246 22.4959C1.02246 17.5383 1.02496 13.7901 1.45937 10.8315C1.88872 7.90718 2.7244 5.88216 4.30414 4.30603Z" stroke="white" stroke-width="2"/>
<path d="M33.6778 13.1845L29.9052 31.2173C29.6205 32.49 28.8783 32.8068 27.8235 32.2071L22.0752 27.9139L19.3015 30.6177C18.9945 30.9288 18.7378 31.189 18.1463 31.189L18.5592 25.2554L29.2131 15.498C29.6763 15.0794 29.1127 14.8476 28.4932 15.2662L15.3223 23.6716L9.65221 21.8729C8.41884 21.4825 8.39652 20.6228 9.90893 20.0232L32.0873 11.3632C33.1141 10.9729 34.0126 11.5951 33.6778 13.1845Z" fill="white"/>
</g>
<defs>
<clipPath id="clip0_37_321">
<rect width="45" height="45" fill="white"/>
</clipPath>
</defs>
</svg>
