<svg width="45" height="43" viewBox="0 0 45 43" fill="none" xmlns="http://www.w3.org/2000/svg">
<g clip-path="url(#clip0_37_317)">
<path d="M5.09878 4.64442L5.10078 4.64249C6.59064 3.2071 8.5156 2.43314 11.3479 2.03329C14.2168 1.62825 17.8575 1.62549 22.7017 1.62549C27.5457 1.62549 31.1867 1.62824 34.0569 2.0324C36.8904 2.43138 38.8182 3.20377 40.3122 4.6365C41.8001 6.06709 42.5958 7.90214 43.0081 10.6019C43.4276 13.3483 43.4308 16.836 43.4308 21.4963C43.4308 26.1566 43.4276 29.6443 43.0081 32.3908C42.5957 35.0909 41.7999 36.9261 40.3116 38.3567C38.8176 39.7929 36.8881 40.567 34.0536 40.9669C31.1826 41.372 27.5418 41.3747 22.7017 41.3747C17.8615 41.3747 14.2207 41.372 11.3508 40.9669C8.51722 40.567 6.59046 39.793 5.10078 38.3578L5.09977 38.3567C3.6116 36.9263 2.81569 35.0894 2.4032 32.388C1.98368 29.6405 1.98047 26.1527 1.98047 21.4963C1.98047 16.8398 1.98369 13.3521 2.40319 10.6057C2.81568 7.90517 3.61147 6.07081 5.09878 4.64442Z" stroke="white" stroke-width="2.60081"/>
<path d="M31.4221 16.5058C31.436 16.698 31.436 16.8903 31.436 17.0826C31.436 22.9465 26.9107 29.7031 18.6398 29.7031C16.0916 29.7031 13.7246 28.9753 11.7334 27.7119C12.0955 27.753 12.4436 27.7668 12.8195 27.7668C14.922 27.7668 16.8575 27.0664 18.4031 25.8717C16.4259 25.8304 14.7688 24.5532 14.198 22.7954C14.4764 22.8366 14.755 22.8642 15.0474 22.8642C15.4511 22.8642 15.855 22.8091 16.2309 22.7131C14.1701 22.3011 12.6245 20.5158 12.6245 18.3598V18.3048C13.2233 18.6344 13.9195 18.8404 14.6575 18.8679C13.446 18.0713 12.6524 16.7118 12.6524 15.1737C12.6524 14.3497 12.8751 13.5944 13.265 12.9352C15.479 15.6268 18.8068 17.3847 22.5385 17.5769C22.4689 17.2473 22.4271 16.9041 22.4271 16.5608C22.4271 14.1163 24.4321 12.125 26.9246 12.125C28.2195 12.125 29.3891 12.6606 30.2107 13.5257C31.227 13.3335 32.2017 12.9627 33.0651 12.4546C32.7309 13.4846 32.0207 14.3498 31.0879 14.8991C31.993 14.803 32.8702 14.5557 33.6777 14.2124C33.0652 15.0912 32.2993 15.8741 31.4221 16.5058Z" fill="white"/>
</g>
<defs>
<clipPath id="clip0_37_317">
<rect width="45" height="42.1875" fill="white" transform="translate(0 0.40625)"/>
</clipPath>
</defs>
</svg>
