<svg width="45" height="45" viewBox="0 0 45 45" fill="none" xmlns="http://www.w3.org/2000/svg">
<g clip-path="url(#clip0_37_329)">
<path fill-rule="evenodd" clip-rule="evenodd" d="M5.67626 5.72896L5.67232 5.7329C4.4261 6.97628 3.69349 8.61837 3.29968 11.3006C2.89378 14.0652 2.8878 17.6074 2.8878 22.496C2.8878 27.3845 2.89377 30.9269 3.2997 33.6925C3.69352 36.3757 4.42633 38.0211 5.67429 39.2691L5.67626 39.271C6.91964 40.5173 8.56173 41.2499 11.244 41.6437C14.0085 42.0496 17.5508 42.0556 22.4394 42.0556C27.3279 42.0556 30.8702 42.0496 33.6359 41.6437C36.3191 41.2498 37.9645 40.517 39.2124 39.2691C40.4608 38.0207 41.1933 36.3769 41.587 33.6954C41.9929 30.9308 41.9989 27.3886 41.9989 22.496C41.9989 17.6034 41.9929 14.0612 41.587 11.2966C41.1934 8.61578 40.4611 6.97213 39.2134 5.72391C37.9654 4.47927 36.3214 3.7483 33.6396 3.35544C30.8745 2.9504 27.3318 2.94444 22.4394 2.94444C17.5467 2.94444 14.0046 2.95043 11.2411 3.3563C8.5605 3.75001 6.92002 4.48236 5.67626 5.72896ZM40.9409 3.99447C44.4434 7.49692 44.4434 12.8503 44.4434 22.496C44.4434 32.1417 44.4434 37.4951 40.9409 40.9976C37.4385 44.5 32.0771 44.5 22.4394 44.5C12.8017 44.5 7.44028 44.5 3.94581 40.9976C0.44336 37.4951 0.443359 32.1337 0.443359 22.496C0.443359 12.8583 0.44336 7.49692 3.94581 4.00245C7.44028 0.5 12.7937 0.5 22.4394 0.5C32.0851 0.5 37.4385 0.5 40.9409 3.99447Z" fill="white"/>
<path d="M16.4434 31V13L31.4434 22L16.4434 31Z" fill="white"/>
</g>
<defs>
<clipPath id="clip0_37_329">
<rect width="45" height="44" fill="white" transform="translate(0 0.5)"/>
</clipPath>
</defs>
</svg>
